<svg width="16" height="20" viewBox="0 0 16 20" fill="none" xmlns="http://www.w3.org/2000/svg">
<path d="M8 20C5.68333 19.4167 3.77067 18.0873 2.262 16.012C0.753334 13.9367 -0.000666225 11.6327 4.41696e-07 9.1V3L8 0L16 3V9.1C16 10.5167 15.7583 11.8793 15.275 13.188C14.7917 14.4967 14.1 15.6507 13.2 16.65L10 13.45C9.7 13.6333 9.37933 13.771 9.038 13.863C8.69667 13.955 8.35067 14.0007 8 14C6.9 14 5.95833 13.6083 5.175 12.825C4.39167 12.0417 4 11.1 4 10C4 8.9 4.39167 7.95833 5.175 7.175C5.95833 6.39167 6.9 6 8 6C9.1 6 10.0417 6.39167 10.825 7.175C11.6083 7.95833 12 8.9 12 10C12 10.3667 11.9543 10.721 11.863 11.063C11.7717 11.405 11.634 11.734 11.45 12.05L12.95 13.55C13.2833 12.8667 13.5417 12.15 13.725 11.4C13.9083 10.65 14 9.88333 14 9.1V4.375L8 2.125L2 4.375V9.1C2 11.1167 2.56667 12.95 3.7 14.6C4.83333 16.25 6.26667 17.35 8 17.9C8.43333 17.7667 8.846 17.596 9.238 17.388C9.63 17.18 10.0173 16.934 10.4 16.65L11.8 18.05C11.25 18.5 10.6543 18.8917 10.013 19.225C9.37167 19.5583 8.70067 19.8167 8 20ZM9.413 11.413C9.80433 11.021 10 10.55 10 10C10 9.45 9.80433 8.97933 9.413 8.588C9.02167 8.19667 8.55067 8.00067 8 8C7.44933 7.99933 6.97867 8.19533 6.588 8.588C6.19733 8.98067 6.00133 9.45133 6 10C5.99867 10.5487 6.19467 11.0197 6.588 11.413C6.98133 11.8063 7.452 12.002 8 12C8.548 11.998 9.019 11.8023 9.413 11.413Z" fill="#727272"/>
</svg>
