<svg width="357" height="160" viewBox="0 0 357 160" fill="none" xmlns="http://www.w3.org/2000/svg">
<g clip-path="url(#clip0_666_12043)">
<g clip-path="url(#clip1_666_12043)">
<rect x="4" y="-155" width="348" height="754" rx="10" fill="#F0F0F0"/>
<path d="M-309.862 644.907H-278.315M-278.315 644.907H-203.302M-254.303 565.337L-266.044 604.246L-278.315 644.907M-248.432 545.883L-242.561 526.429L-208.78 473.849M-242.561 526.429L-213.116 539.749M-75.0079 265.635L-15.418 247.407M-123.652 341.349L-98.4293 302.09L-75.0079 265.635M-75.0079 265.635L-101.648 229.18M-27.336 192.725L-15.418 247.407L-9.10846 302.09M-9.10846 302.09V367.989M-9.10846 302.09H-48.3677M-9.10846 302.09H36.8109M-9.10846 367.989H-48.3677M-9.10846 367.989L0.70636 368.291M-49.5455 417.063L-48.721 382.712L-48.3677 367.989M-48.3677 367.989L-50.4709 349.061M-9.10846 461.931L-12.3427 461.438C-34.1415 458.113 -50.0746 439.108 -49.5455 417.063M-9.10846 461.931L-5.60315 508.201M-9.10846 461.931L0.70636 368.291M-5.60315 508.201V536.944M-108.308 506.083L-75.0079 506.77L-5.60315 508.201M187.188 510.386L147.929 509.941L-5.60315 508.201M-141.608 505.397V475.952M-141.608 505.397L-108.308 506.083M-161.238 567.367L-145.384 517.315L-141.608 505.397M-141.608 475.952L-124.076 472.195C-116.254 470.519 -108.961 466.953 -102.834 461.809L-49.5455 417.063M-141.608 475.952L-147.217 468.942M-48.721 382.712L-118.129 416.383C-126.565 420.475 -133.53 427.075 -138.071 435.278L-148.477 454.076C-151.108 458.829 -150.61 464.7 -147.217 468.942M-208.78 473.849L-201.198 473.245L-147.217 468.942M-123.652 341.349L-172.297 417.063L-208.78 473.849M-208.78 473.849L-242.561 445.106M-201.198 473.245L-198.722 497.129C-197.601 507.942 -200.107 518.82 -205.845 528.052L-213.116 539.749M-132.788 582.513L-147.013 574.94L-161.238 567.367L-196.992 548.333L-213.116 539.749M-115.669 591.627L-132.788 582.513M-115.669 591.627L-118.474 644.907M-70.8016 607.751L-99.545 597.422L-115.669 591.627M-70.8016 607.751H-5.60315M-70.8016 607.751L-67.7334 622.215C-66.5171 627.949 -66.3395 633.855 -67.209 639.652L-67.9973 644.907M-70.8016 607.751L-57.4815 578.307M-5.60315 607.751V644.907M-5.60315 607.751V574.94M-5.60315 536.944V553.77M-77.8122 534.841L-53.9762 535.535L-5.60315 536.944M-77.8122 534.841L-75.0079 506.77M-77.8122 534.841L-99.545 597.422M-108.308 506.083L-132.788 582.513M-145.384 517.315L-170.352 519.418M-200.874 607.751L-198.584 572.698L-196.992 548.333M-203.302 644.907L-200.874 607.751M-203.302 644.907H-118.474M-200.874 607.751L-266.044 604.246M-254.303 565.337L-198.584 572.698M-254.303 565.337L-248.432 545.883M-147.013 574.94L-151.423 643.505M-118.474 644.907H-67.9973M-67.9973 644.907H-5.60315M-5.60315 644.907H36.8109M-5.60315 553.77H36.8109M-5.60315 553.77V574.94M79.2249 553.77H36.8109M79.2249 553.77V587.421M79.2249 553.77L147.929 548.333M36.8109 644.907V553.77M36.8109 644.907C60.2355 644.907 79.2249 625.918 79.2249 602.493V587.421M-5.60315 574.94L-57.4815 578.307M-57.4815 578.307L-53.9762 535.535M-123.652 341.349L-50.4709 349.061M-50.4709 349.061L-48.3677 302.09M-48.3677 302.09H-98.4293M84.1323 302.09H51.8836M51.8836 302.09L38.1452 229.244C37.2604 224.553 37.066 219.757 37.5682 215.009L40.6667 185.714M51.8836 302.09H36.8109M40.6667 185.714L30.8519 185.597M40.6667 185.714H84.1323M-18.2222 185.013L-6.37817 119.213C-5.86251 116.348 -5.60315 113.443 -5.60315 110.533V78.4523M-18.2222 185.013L30.8519 185.597M-18.2222 185.013L-27.336 192.725M-2.09787 114.907L36.8109 118.413M36.8109 118.413L30.8519 185.597M36.8109 118.413L86.9365 119.815M-242.561 445.106L-264.776 473.245L-274.108 485.066C-288.503 507.184 -277.696 536.929 -252.461 544.65L-248.432 545.883M-274.108 485.066L-248.432 506.77M-117.772 249.511L-131.555 266.889C-133.114 268.854 -134.519 270.936 -135.759 273.117L-136.289 274.048L-174.558 341.349L-208.56 393.227L-224.182 417.063L-242.561 445.106M-174.558 341.349L-252.376 311.905M-117.772 249.511L-101.648 229.18L-79.7785 214.216C-76.6091 212.048 -73.1957 210.259 -69.6087 208.888L-27.336 192.725M-172.297 417.063L-208.56 393.227M-264.776 473.245L-298.645 445.106M-224.182 417.063L-264.776 393.227M-136.289 274.048L-215.921 210.952M-117.772 249.511L-189.28 173.796M36.8109 369.4L126.897 372.168L145.124 372.728L167.558 373.418L180.177 373.805L206.116 374.602L241.87 375.701M36.8109 302.09V369.4M36.8109 369.4L0.70636 368.291M241.87 511.005L187.188 510.386M79.2249 587.421H126.897M241.87 587.421H206.116M147.929 548.333V509.941M147.929 548.333V587.421M147.929 587.421H126.897M147.929 587.421H164.754M187.188 510.386V548.333M187.188 548.333L241.87 553.77M187.188 548.333C179.758 551.722 174.558 558.652 173.38 566.732L170.362 587.421M170.362 587.421H164.754M170.362 587.421H206.116M126.897 587.421V669.444M164.754 587.421L159.146 669.444M206.116 587.421L200.508 669.444M84.1323 669.444H236.963M89.7408 467.54H124.093M236.963 467.54H124.093M180.177 421.971C171.363 433.99 154.984 437.575 141.955 430.337L126.897 421.971L118.043 417.708C111.412 414.515 104.146 412.857 96.7863 412.857H84.1323M126.897 421.971L124.093 467.54M180.177 421.971H236.963M180.177 421.971V373.805M145.124 372.728V398.135M126.897 372.168L124.093 234.087M124.093 234.087L91.8439 231.984M202.611 237.593L164.754 234.087H124.093M167.558 373.418L164.754 234.087M206.116 374.602L202.611 237.593M202.611 237.593H241.87M91.8439 185.013L294.45 187.88M294.45 187.88L345.627 188.604L389.093 189.22M91.8439 138.743H129.701M241.87 138.743H208.921M208.921 64.6917L174.569 54.9474L167.558 52.9588L129.701 42.2201L91.8439 31.4814M129.701 42.2201V138.743M129.701 138.743H172.466M174.569 54.9474L172.466 138.743M172.466 138.743H208.921M208.921 64.6917V138.743M208.921 64.6917L206.187 9.81575C205.685 -0.264727 208.308 -10.2543 213.697 -18.7878L239.066 -58.9551L249.412 -71.2719C252.316 -74.7284 255.683 -77.7671 259.418 -80.3018L262.396 -82.3224C269.578 -87.1961 278.058 -89.8016 286.738 -89.8016M208.921 64.6917L297.254 89.7486M167.558 52.9588V-15.5061C167.558 -24.2174 169.881 -32.7712 174.286 -40.2864L189.029 -65.4357C190.602 -68.1198 192.428 -70.6479 194.48 -72.9857L235.923 -120.185C239.806 -124.606 244.879 -127.817 250.537 -129.434C254.532 -130.575 258.718 -130.893 262.84 -130.367L289.542 -126.958M289.542 -126.958L290.732 -111.886C291.331 -104.303 289.955 -96.6945 286.738 -89.8016M289.542 -126.958H333.709M297.254 89.7486L342.823 102.675L345.627 103.47L389.093 115.8L436.064 129.124L452.426 133.765C468.49 138.322 485.001 128.109 488.097 111.7L488.222 111.037C488.96 107.128 488.775 103.101 487.682 99.2762L487.049 97.0608C485.814 92.738 483.101 88.9857 479.384 86.4577C472.391 81.7029 469.333 72.9338 471.85 64.8617L491.447 2.037L527.632 -100.681C531.38 -111.321 524.368 -122.71 513.18 -124.153L491.447 -126.958H440.971M440.971 -126.958H392.598M440.971 -126.958L440.259 -89.8016M436.064 129.124L438.799 -13.6059M286.738 -89.8016L300.058 -58.9551M300.058 -58.9551L286.738 -18.9948M300.058 -58.9551L329.503 -64.5635M286.738 -18.9948L243 -10M286.738 -18.9948L297.254 -18.469M329.503 -64.5635L332.548 -71.761C335.614 -79.0077 336.889 -86.8862 336.267 -94.73L333.709 -126.958M329.503 -64.5635C338.031 -56.0348 342.823 -44.4674 342.823 -32.406V-16.1905M342.823 -16.1905L438.799 -13.6059M342.823 -16.1905V102.675M342.823 -16.1905L297.254 -18.469M438.799 -13.6059L460.113 -12.3117C463.645 -12.0973 467.168 -12.8374 470.315 -14.4544C475.287 -17.0096 478.94 -21.5565 480.364 -26.9627L489.344 -61.0582L498.613 -85.5953M438.799 -13.6059L440.259 -89.8016M333.709 -126.958H392.598M392.598 -126.958L389.093 115.8M297.254 -18.469V89.7486M297.254 89.7486L294.45 187.88M513.18 -124.153L498.613 -85.5953M498.613 -85.5953L440.259 -89.8016M345.627 103.47V188.604" stroke="white" stroke-width="9.61" stroke-linecap="round" stroke-linejoin="round"/>
<path d="M250.283 236.892H297.955M336.513 236.892C350.6 236.892 363.828 230.12 372.065 218.693L394.701 187.287L436.765 128.929M394.701 187.287L429.053 212.355M429.053 212.355L471.378 156.837C478.871 147.009 489.8 140.375 501.977 138.264L531.46 133.154C534.224 132.675 537.024 132.434 539.829 132.434H547.94C568.704 132.434 587.213 119.347 594.136 99.7718L602.915 74.9474M429.053 212.355L404.009 253.891C401.556 257.96 398.524 261.65 395.008 264.847L380.34 278.181C369.298 288.219 366.117 304.297 372.506 317.783C373.744 320.397 375.311 322.841 377.169 325.057L429.053 386.918M429.053 212.355L444.506 229.802C448.654 234.485 451.867 239.919 453.971 245.811L476.733 309.543C478.103 313.38 478.388 317.521 477.557 321.51C476.149 328.269 477.974 335.299 482.492 340.52L486.243 344.855M429.053 386.918L385.587 409.352M450.786 409.352L436.765 394.879L429.053 386.918M336.513 381.31L370.865 400.939L385.587 409.352M374.37 491.376L378.301 462.633L379.979 450.364L381.561 438.797L385.587 409.352M336.513 381.31V236.892M336.513 381.31L293.075 412.156M336.513 236.892H297.955M292.197 443.704L293.075 412.156L294.773 351.164L297.955 236.892M289.542 539.048L290.87 491.376M290.87 491.376H374.37M290.87 491.376L292.197 443.704M375.847 682.765L376.294 634.392L377.175 539.048L374.37 491.376M377.175 539.048H290.87M292.197 443.704L323.894 446.109M379.979 450.364L323.894 446.109M323.894 446.109L370.865 400.939M381.561 438.797L424.414 420.569M566.46 486.469L538.418 467.589L531.057 462.633L495.653 438.797L450.786 409.352M450.786 409.352V467.589M450.786 409.352L424.414 420.569M450.786 588.823H421.341M518.788 590.472L470.733 589.307L450.786 588.823M450.786 588.823V467.589M247.479 588.823H421.341M566.46 591.627L518.788 590.472M566.46 486.469V591.627L565.39 638.949M374.37 842.606L375.426 728.334M247.479 634.392H376.294M375.847 682.765H244.675M375.847 682.765L375.426 728.334M375.847 682.765C400.973 682.765 421.341 662.396 421.341 637.27V588.823M424.145 682.765L420.163 751.468M418.537 779.511L278.325 776.006M418.537 779.511V829.987M418.537 779.511L420.163 751.468M278.325 776.006V728.334M278.325 776.006L274.82 811.759M278.325 728.334H375.426M278.325 728.334H247.957C239.821 728.334 231.813 726.308 224.656 722.439L212.576 715.909C210.617 714.85 208.822 713.513 207.247 711.938C202.932 707.623 200.508 701.77 200.508 695.668V670.146M158.444 670.146V720.622M449.384 813.863L470.733 752.568M420.163 751.468H469.952C470.522 751.468 470.921 752.03 470.733 752.568M470.733 752.568L518.788 751.468M470.733 752.568V589.307M518.788 751.468L541.044 754.139C549.124 755.109 557.201 752.315 562.955 746.561M518.788 751.468V590.472M565.39 638.949L564.319 686.27L563.288 731.839L562.955 746.561M562.955 746.561C563.139 764.812 577.987 779.511 596.239 779.511H668.235C687.024 779.511 704.159 768.767 712.343 751.853L719.992 736.045M563.288 731.839L698.96 735.481M719.992 736.045L698.96 735.481M811.13 630.185L764.775 662.634C758.381 667.11 753.148 673.048 749.513 679.955L746.189 686.27L719.992 736.045M564.319 686.27H609.832C636.407 686.27 658.138 665.086 658.816 638.52L660.954 554.718C661.053 550.842 660.497 546.977 659.311 543.286C656.426 534.311 649.993 526.909 641.507 522.801L598.008 501.742M565.39 638.949H600.059C601.934 638.949 603.778 638.481 605.426 637.588C609.063 635.619 611.328 631.816 611.328 627.68V548.863M566.46 486.469L598.008 501.742M495.653 438.797L492.148 539.048M531.057 462.633V539.048M436.765 394.879L486.243 344.855M486.243 344.855L522.995 307.699L575.574 276.852M522.995 307.699L598.008 375.701M575.574 276.852L572.519 257.216C571.302 249.392 572 241.389 574.551 233.893L584.986 203.241M575.574 276.852L638.844 361.434C641.057 364.393 642.929 367.592 644.423 370.972L651.473 386.918M575.574 276.852L677.227 246.674M629.556 135.939V106.943C629.556 91.2483 618.351 77.7907 602.915 74.9474M629.556 135.939L630.871 136.749C636.025 139.921 641.723 142.11 647.675 143.207L731.91 158.724M584.986 203.241L590.639 186.634C592.266 181.856 594.764 177.421 598.008 173.554L629.556 135.939M602.915 74.9474L582.585 46.905M602.915 236.892C607.672 225.793 603.135 212.901 592.476 207.228L584.986 203.241M584.986 203.241L540.581 175.498C537.296 173.445 533.672 171.993 529.878 171.208C520.606 169.289 510.959 171.483 503.428 177.22L500.561 179.405M486.243 344.855L500.39 360.664C505.121 365.952 510.944 370.149 517.457 372.966L559.45 391.125M724.198 509.603L674.14 436.184C672.463 433.725 671.013 431.117 669.81 428.394L651.473 386.918M724.198 509.603L727.003 553.069M724.198 509.603L733.833 507.462C739.972 506.098 746.315 505.928 752.518 506.962L768.365 509.603M710.177 541.852L698.259 525.728L658.647 478.933C645.743 463.689 622.456 463.038 608.72 477.537C604.91 481.559 602.156 486.463 600.704 491.81L598.008 501.742M538.418 467.589L562.955 429.683M584.986 423.373L581.332 432.838C579.548 437.456 573.733 438.921 569.974 435.699L562.955 429.683L551.037 423.373M581.332 432.838L598.008 443.704M651.473 386.918L667.869 379.777C674.042 377.089 680.702 375.701 687.435 375.701H704.569M704.569 375.701L715.786 420.569M779.582 360.979H769.917C765.629 360.979 761.36 361.542 757.219 362.653L734.714 368.691L704.569 375.701M734.714 368.691L729.106 316.812M779.582 360.979L773.587 389.969C772.912 393.234 772.571 396.559 772.571 399.892V412.299C772.571 424.918 779.6 436.487 790.799 442.302M779.582 360.979H795.706M795.706 360.979L793.011 347.887C791.554 340.812 788.551 334.147 784.217 328.368L764.845 302.538C758.484 294.056 755.045 283.74 755.045 273.138V236.892M795.706 360.979C812.093 363.473 826.464 349.911 824.924 333.408L818.14 260.728M779.582 243.902L755.045 236.892H717.297C712.575 236.892 707.878 237.574 703.352 238.918L677.227 246.674M677.227 246.674V199.736M677.227 199.736L702.866 196.473C711.111 195.423 718.557 191.017 723.446 184.295C725.794 181.067 727.477 177.405 728.399 173.521L731.91 158.724M677.227 199.736L598.008 173.554M736.817 138.043L731.91 158.724M490.746 4.14049L551.037 25.8733M504.066 -37.2219L608.524 9.74896M608.524 9.74896L602.915 25.8733M608.524 9.74896L626.263 -16.8593C637.111 -33.1319 631.797 -55.1968 614.73 -64.7463L595.821 -75.3262C589.865 -78.6588 587.793 -86.2238 591.219 -92.1265C594.852 -98.3857 592.28 -106.413 585.687 -109.396L539.119 -130.463M539.119 -130.463L535.614 -119.947M539.119 -130.463V-156.402M250.283 349.061L294.773 351.164M698.96 735.481L704.569 553.069M768.365 509.603L755.045 462.633M768.365 509.603L763.458 560.08M884.04 525.728L860.204 529.233L835.667 522.924L768.365 509.603M835.667 522.924L825.852 560.08M860.204 529.233L864.8 508.09C866.22 501.557 863.029 494.892 857.049 491.902C850.15 488.452 847.115 480.237 850.116 473.131L856.269 458.558C857.483 455.682 859.118 453.002 861.121 450.607L892.208 413.425C893.3 412.119 894.195 410.66 894.866 409.096C898.865 399.765 894.105 389 884.511 385.679L829.357 366.588M864.41 600.04L884.04 525.728L897.36 470.344M629.556 -19.6955L657.598 -4.2722M657.598 -4.2722L629.556 58.122M657.598 -4.2722L666.355 -17.2893C676.026 -31.6652 695.183 -36.0882 710.177 -27.4071M710.177 -27.4071L689.847 9.74896M710.177 -27.4071L729.106 -16.8913M783.087 -47.0368C763.854 -51.2179 744.114 -42.5503 734.176 -25.5605L729.106 -16.8913L720.464 -5.97543C717.72 -2.50979 717.711 2.38517 720.442 5.86086C722.358 8.29939 722.972 11.516 722.088 14.4886L717.7 29.2505C716.433 33.5114 714.453 37.5266 711.844 41.1255L695.455 63.7304M-252.376 278.254L-297.243 252.315M-70.1005 -159.206L-106.943 -65.9477C-112.051 -53.0188 -122.41 -42.8678 -135.44 -38.0234L-163.176 -27.7113C-167.471 -26.1143 -171.521 -23.9226 -175.208 -21.2002L-205.075 0.85582C-211.73 5.76978 -217.032 12.2884 -220.487 19.8041L-235.951 53.4368C-240.679 63.7201 -241.701 75.3229 -238.844 86.2744L-234.849 101.588L-231.344 130.331L-233.487 147.477C-234.384 154.652 -233.682 161.937 -231.431 168.809L-221.529 199.035M-231.344 130.331H-264.995M-234.849 101.588L-279.016 97.3812M-134.598 113.506L-135.837 72.0064C-135.944 68.3972 -135.308 64.8045 -133.967 61.452C-130.84 53.6343 -131.644 44.792 -136.13 37.6667L-138.314 34.1985C-140.008 31.5075 -140.907 28.3923 -140.907 25.2123C-140.907 15.8978 -133.356 8.34684 -124.042 8.34684H-113.954C-112.297 8.34684 -110.643 8.49968 -109.014 8.80342L-107.22 9.13787C-85.5699 13.1744 -69.6829 31.7889 -69.0984 53.8044L-67.9973 95.2781M11.9233 49.0082L-4.28402 30.6107C-10.5557 23.4915 -14.0159 14.3293 -14.0159 4.84155M-43.4603 -63.8621L-33.4258 -55.8345C-33.1373 -55.6038 -33.0258 -55.2162 -33.1475 -54.8674L-33.462 -53.9657C-39.5875 -36.4061 -35.2443 -16.8923 -22.2496 -3.58826L-14.0159 4.84155M-14.0159 4.84155C-12.0075 2.83318 13.3746 -28.2311 29.7367 -48.3273C33.2646 -52.6604 36.0143 -57.5582 37.8852 -62.8234L65.9048 -141.68M-33.1475 -54.8674L-0.695758 -112.235M158.444 -127.658L151.063 -135.039C141.874 -144.229 129.411 -149.391 116.415 -149.391H99.5556M-131.093 422.672L-85.5238 345.556M-92.5344 504.696L-90.2806 497.033C-87.198 486.552 -80.7016 477.403 -71.8233 471.037L-48.3677 454.22M414.331 536.945L413.63 464.736M424.145 465.543L413.63 464.736L378.301 462.633M450.786 467.589L424.145 465.543M424.145 465.543L424.414 420.569M-311.966 1134.25L-308.617 1125.13M65.9048 787.222L-60.3247 776.305C-62.6326 776.106 -64.9519 776.07 -67.2649 776.199L-79.9153 776.901M-308.617 1125.13L-290.33 1075.36L-274.877 1033.29L-195.805 818.069C-194.276 813.907 -191.908 810.104 -188.848 806.895L-178.126 795.649C-169.529 786.633 -157.82 781.229 -145.381 780.538L-79.9153 776.901M-79.9153 776.901L-89.2606 797.037M-89.2606 797.037L-96.8802 813.455C-102.604 825.787 -102.946 839.944 -97.8253 852.539L-85.1509 883.711C-81.7281 892.129 -80.7137 901.334 -82.2213 910.295L-89.2606 952.14L-91.7512 966.945C-92.2721 970.042 -93.0895 973.081 -94.1921 976.021L-115.669 1033.29M-115.669 1033.29L-203.277 1029.48C-208.974 1029.24 -214.406 1031.9 -217.702 1036.55C-221.701 1042.2 -228.752 1044.81 -235.464 1043.13L-274.877 1033.29M-115.669 1033.29L-85.5238 1045.91M1.40742 949.868L-85.5238 1045.91L-101.391 1061.41C-110.545 1070.35 -122.833 1075.36 -135.629 1075.36H-138.804L-231.928 1078.66C-235.653 1078.79 -239.244 1080.08 -242.204 1082.34C-246.826 1085.88 -252.873 1086.95 -258.431 1085.23L-290.33 1075.36M-308.617 1125.13L-226.642 1155C-217.374 1158.38 -207.302 1158.88 -197.745 1156.44L-185.561 1153.33C-181.514 1152.3 -177.616 1150.75 -173.961 1148.73L-48.9672 1079.57C-43.9332 1076.78 -39.429 1073.13 -35.661 1068.78L-15.5121 1045.54C-8.62215 1037.59 -4.47374 1027.63 -3.68038 1017.14L1.40742 949.868M1.40742 949.868L11.0371 907.801C13.431 897.344 19.1909 887.961 27.4326 881.093L52.7427 860.001C58.1812 855.469 64.5371 852.169 71.373 850.328L101.902 842.109C110.9 839.687 120.403 839.88 129.296 842.667L162.651 853.122M1.40742 949.868L-11.6318 895.228C-12.7477 890.551 -14.5458 886.065 -16.9683 881.912L-42.8772 837.496C-46.0407 832.073 -50.2169 827.309 -55.1786 823.462L-89.2606 797.037M-89.2606 952.14H-168.95M-224.333 906.402L-221.761 905.116C-211.918 900.195 -199.96 903.111 -193.487 912.011M-185.074 932.341L-193.487 912.011M-193.487 912.011L-127.587 888.175M-278.315 645.609V737.85C-278.315 750.463 -272.653 762.41 -262.892 770.397M-232.045 645.609L-229.241 732.54M-150.021 645.609V696.786M-63.791 645.609V691.177M-195.805 818.069L-233.831 801.7C-240.237 798.943 -247.696 800.783 -252.085 806.204C-254.94 809.731 -259.191 811.836 -263.726 811.97L-280.418 812.461M746.189 686.27L820.243 746.561L897.36 799.14M783.087 -47.0368L795.706 -81.3886M783.087 -47.0368L793.679 -34.6799C797.796 -29.8768 802.804 -25.9164 808.426 -23.0173L844.78 -4.2722M795.706 -81.3886L772.571 -96.8119M795.706 -81.3886L844.78 -61.759M844.78 -4.2722L867.915 -7.77749M867.915 46.905L861.606 15.3574L844.78 -4.2722M861.606 15.3574L800.599 -8.80353C794.193 -11.3407 787.206 -12.04 780.424 -10.8227L771.999 -9.31064C766.584 -8.33862 761.874 -5.02398 759.132 -0.25419L755.709 5.69757C751.441 13.1218 755.24 22.5841 763.458 24.9946M919.794 41.2966C913.239 48.7247 903.358 52.3116 893.565 50.8178L867.915 46.905L821.811 34.1657C817.104 32.8649 812.143 32.776 807.392 33.9073C802.491 35.0743 797.37 34.9422 792.535 33.524L763.458 24.9946M763.458 24.9946L755.045 53.2146M779.582 243.902L792.591 188.149C793.652 183.604 792.212 178.839 788.813 175.642C787.352 174.268 785.595 173.249 783.678 172.662L769.066 168.188M779.582 243.902L785.933 246.674M818.14 260.728L785.933 246.674M818.14 260.728C820.944 260.728 849.688 254.185 863.709 250.913M785.933 246.674V272.47C785.933 277.695 786.769 282.886 788.408 287.847L790.799 295.08M863.709 250.913L868.323 221.176C869.439 213.984 872.144 207.13 876.24 201.113L882.608 191.761C888.974 182.41 898.379 175.551 909.227 172.346L923.299 168.188M863.709 250.913L894.105 256.277C897.666 256.905 901.147 257.926 904.483 259.321L946.434 276.852M468.312 77.7516L436.765 82.659M336.513 -127.658V-156.402M441.672 -127.658V-156.402M515.283 -127.658L517.386 -154.299" stroke="white" stroke-width="9.61" stroke-linecap="round" stroke-linejoin="round"/>
<path d="M-314.77 643.505H83.4313M961.156 1001.05L901.808 969.912C884.611 960.89 865.482 956.177 846.062 956.177H781.671C762.785 956.177 744.166 951.72 727.327 943.167L721.275 940.092C712.97 935.874 704.202 932.637 695.149 930.447L621.844 912.712L572.58 902.32C546.356 896.788 519.035 900.195 494.972 911.996L455.812 931.202C433.826 941.985 409.068 945.784 384.861 942.088L345.988 936.153C335.511 934.554 325.293 931.573 315.599 927.29L204.394 878.153C188.051 870.932 173.811 859.675 163.011 845.439L162.034 844.151C153.209 832.518 141.902 822.997 128.935 816.282C93.3811 797.871 72.5532 759.729 76.2843 719.865L83.4313 643.505L89.9035 89.4806C90.2501 59.8161 79.5959 31.0746 59.9973 8.80345L59.5953 8.3466M59.5953 8.3466L-6.36578 71.8279C-24.1208 88.9155 -46.706 100.123 -71.0526 103.927L-80.9321 105.471C-94.1817 107.541 -106.99 111.817 -118.826 118.122L-154.06 136.892C-168.507 144.588 -181.227 155.159 -191.437 167.954L-215.127 197.641C-225.814 211.033 -233.509 226.56 -237.695 243.175L-251.101 296.394C-253.346 305.303 -256.605 313.925 -260.817 322.09L-288.831 376.402L-311.264 409.352M197.003 -157.804L138.114 -101.72L101.659 -42.8307L59.5953 8.3466M138.114 -101.72L204.773 -47.2949C232.687 -24.5048 248.881 9.62305 248.881 45.6585V400.939L245.726 539.048M213.127 774.502L228.55 731.138L239.067 690.648C241.396 681.683 242.678 672.48 242.89 663.22L245.726 539.048M245.726 539.048L663.508 546.005C692.682 546.491 720.681 557.59 742.264 577.226L802.016 631.587M802.016 631.587L781.888 650.278C763.956 666.929 738.546 672.837 715.107 665.806L710.57 664.445C706.134 663.114 701.505 662.541 696.878 662.752C674.901 663.751 657.598 681.858 657.598 703.857V826.482M802.016 631.587L840.171 608.915C846.966 604.878 854.144 601.521 861.599 598.895L912.082 581.111L961.156 570.595M657.598 826.482L541.969 810.991C521.71 808.276 501.094 810.782 482.075 818.27L443.231 833.563C429.23 839.075 414.318 841.905 399.271 841.905H349.968C326.117 841.905 302.807 834.797 283.014 821.489L170.124 745.589C155.958 736.065 139.922 729.672 123.088 726.838L-53.9016 697.048C-60.483 695.94 -67.1454 695.384 -73.8194 695.384H-127.762C-145.196 695.384 -162.421 699.182 -178.238 706.516L-202.303 717.673C-221.301 726.481 -237.527 740.319 -249.225 757.688L-251.603 761.22C-253.517 764.061 -255.195 767.055 -256.621 770.171C-266.848 792.519 -289.169 806.852 -313.747 806.852H-314.77M657.598 826.482L961.156 928.836M621.844 912.712L657.598 970.198L688.912 1011C698.78 1023.86 711.151 1034.59 725.278 1042.53L770.618 1068.04C778.439 1072.44 785.742 1077.7 792.389 1083.73L805.662 1095.76C824.694 1113.02 848.762 1123.71 874.324 1126.26L961.156 1134.95" stroke="white" stroke-width="18.42"/>
<g filter="url(#filter0_dd_666_12043)">
<path d="M418.5 592L420.274 555.455C420.667 547.363 414.13 540.628 406.03 540.778L301.121 542.728C293.151 542.876 286.666 536.35 286.865 528.381L289.164 436.426C289.352 428.922 283.589 422.606 276.1 422.107L235.069 419.371C227.715 418.881 222 412.773 222 405.402V387.556C222 379.999 216.004 373.807 208.451 373.563L142.907 371.449C135.212 371.2 129.162 364.786 129.363 357.091L134.644 154.635C134.842 147.048 141.05 141 148.64 141H160C167.732 141 174 134.732 174 127V82" stroke="#13A9FF" stroke-width="6"/>
</g>
<g filter="url(#filter1_f_666_12043)">
<rect x="121" y="82" width="25" height="10" rx="5" fill="#646464"/>
</g>
<path d="M180.218 75.9706L173.5 83L166.782 75.9706C163.073 72.0883 163.073 65.7939 166.782 61.9117C170.492 58.0294 176.507 58.0294 180.218 61.9117C183.927 65.7939 183.927 72.0883 180.218 75.9706ZM173.5 71.1503C174.666 71.1503 175.611 70.1612 175.611 68.9411C175.611 67.7211 174.666 66.732 173.5 66.732C172.334 66.732 171.389 67.7211 171.389 68.9411C171.389 70.1612 172.334 71.1503 173.5 71.1503Z" fill="#FF1F13"/>
</g>
</g>
<rect x="0.5" y="0.5" width="356" height="159" rx="15.5" stroke="#9CA3AF"/>
<defs>
<filter id="filter0_dd_666_12043" x="119.258" y="74.9" width="311.133" height="524.346" filterUnits="userSpaceOnUse" color-interpolation-filters="sRGB">
<feFlood flood-opacity="0" result="BackgroundImageFix"/>
<feColorMatrix in="SourceAlpha" type="matrix" values="0 0 0 0 0 0 0 0 0 0 0 0 0 0 0 0 0 0 127 0" result="hardAlpha"/>
<feOffset/>
<feGaussianBlur stdDeviation="3.55"/>
<feComposite in2="hardAlpha" operator="out"/>
<feColorMatrix type="matrix" values="0 0 0 0 0.075944 0 0 0 0 0.661179 0 0 0 0 1 0 0 0 0.25 0"/>
<feBlend mode="normal" in2="BackgroundImageFix" result="effect1_dropShadow_666_12043"/>
<feColorMatrix in="SourceAlpha" type="matrix" values="0 0 0 0 0 0 0 0 0 0 0 0 0 0 0 0 0 0 127 0" result="hardAlpha"/>
<feOffset/>
<feGaussianBlur stdDeviation="3.55"/>
<feComposite in2="hardAlpha" operator="out"/>
<feColorMatrix type="matrix" values="0 0 0 0 0.075944 0 0 0 0 0.661179 0 0 0 0 1 0 0 0 0.25 0"/>
<feBlend mode="normal" in2="effect1_dropShadow_666_12043" result="effect2_dropShadow_666_12043"/>
<feBlend mode="normal" in="SourceGraphic" in2="effect2_dropShadow_666_12043" result="shape"/>
</filter>
<filter id="filter1_f_666_12043" x="111.3" y="72.3" width="44.4" height="29.4" filterUnits="userSpaceOnUse" color-interpolation-filters="sRGB">
<feFlood flood-opacity="0" result="BackgroundImageFix"/>
<feBlend mode="normal" in="SourceGraphic" in2="BackgroundImageFix" result="shape"/>
<feGaussianBlur stdDeviation="4.85" result="effect1_foregroundBlur_666_12043"/>
</filter>
<clipPath id="clip0_666_12043">
<rect x="1" y="1" width="355" height="158" rx="15" fill="white"/>
</clipPath>
<clipPath id="clip1_666_12043">
<rect x="4" y="-155" width="348" height="754" rx="10" fill="white"/>
</clipPath>
</defs>
</svg>
